<?xml version="1.0" encoding="utf-8"?>
<!-- Generator: Adobe Illustrator 16.0.4, SVG Export Plug-In . SVG Version: 6.00 Build 0)  -->
<!DOCTYPE svg PUBLIC "-//W3C//DTD SVG 1.1//EN" "http://www.w3.org/Graphics/SVG/1.1/DTD/svg11.dtd">
<svg version="1.1" id="Layer_1" xmlns="http://www.w3.org/2000/svg" xmlns:xlink="http://www.w3.org/1999/xlink" x="0px" y="0px"
	 width="55.295px" height="55.488px" viewBox="0 0 55.295 55.488" enable-background="new 0 0 55.295 55.488" xml:space="preserve">
<path fill="#FFFFFF" d="M24.092,55.488c-0.93-7.968-0.93-7.968-7.25-10.687c-1.789,1.679-3.703,3.475-6.198,5.813
	c-1.61-1.968-3.153-3.853-4.899-5.986c1.573-1.761,3.31-3.704,4.811-5.384C9.665,32.955,6.459,30.177,0,32.01
	c0-2.912,0-5.305,0-8.308c5.542,1.078,9.746-0.326,10.409-7.356c-1.251-1.378-2.898-3.19-5.079-5.593
	c2.074-1.257,4.174-2.529,6.274-3.803c2.321-0.464,3.008,4.942,8.481,2.671c5.522-2.291,2.466-6.41,4.078-9.622
	c2.171,0,4.443,0,7.428,0c-0.822,5.624,0.454,10.305,7.844,10.535c1.498-1.415,3.289-3.104,5.258-4.965
	c1.82,1.87,3.498,3.593,5.341,5.483c-1.949,3.197-8.015,5.604-3.233,10.403c1.85,1.857,5.174,2.247,8.497,3.573
	c0,1.259,0,3.642,0,6.05c-7.957,1.602-7.957,1.602-10.662,7.612c0.869,0.971,1.843,2.049,2.808,3.137
	c0.863,0.974,1.715,1.956,2.969,3.391c-1.893,1.636-3.62,3.129-5.43,4.691c-3.394-0.566-4.067-6.471-9.791-4.069
	c-5.459,2.291-2.459,6.426-3.974,9.646C28.964,55.488,26.694,55.488,24.092,55.488z M27.742,39.682
	c6.555-0.045,11.999-5.616,11.883-12.16c-0.112-6.365-5.422-11.646-11.8-11.732c-6.585-0.092-12.102,5.323-12.124,11.899
	C15.679,34.249,21.179,39.728,27.742,39.682z"/>
</svg>
